<svg width="40" height="40" viewBox="0 0 40 40" fill="none" xmlns="http://www.w3.org/2000/svg">
<g id="mi:close">
<path id="Vector" d="M8.82172 8.82168C9.13426 8.50923 9.55811 8.3337 10.0001 8.3337C10.442 8.3337 10.8658 8.50923 11.1784 8.82168L20 17.6433L28.8217 8.82168C28.9755 8.6625 29.1594 8.53553 29.3627 8.44818C29.566 8.36083 29.7847 8.31485 30.006 8.31293C30.2273 8.31101 30.4468 8.35318 30.6516 8.43698C30.8565 8.52078 31.0426 8.64453 31.199 8.80102C31.3555 8.95751 31.4793 9.1436 31.5631 9.34842C31.6469 9.55325 31.6891 9.77272 31.6871 9.99402C31.6852 10.2153 31.6392 10.434 31.5519 10.6374C31.4645 10.8407 31.3376 11.0246 31.1784 11.1783L22.3567 20L31.1784 28.8217C31.482 29.136 31.65 29.557 31.6462 29.994C31.6424 30.431 31.4671 30.849 31.1581 31.158C30.8491 31.4671 30.431 31.6423 29.9941 31.6461C29.5571 31.6499 29.1361 31.4819 28.8217 31.1783L20 22.3567L11.1784 31.1783C10.864 31.4819 10.443 31.6499 10.006 31.6461C9.56905 31.6423 9.15103 31.4671 8.84202 31.158C8.53301 30.849 8.35772 30.431 8.35393 29.994C8.35013 29.557 8.51812 29.136 8.82172 28.8217L17.6434 20L8.82172 11.1783C8.50927 10.8658 8.33374 10.442 8.33374 10C8.33374 9.55807 8.50927 9.13423 8.82172 8.82168Z" fill="black"/>
</g>
</svg>
