<svg width="40" height="40" viewBox="0 0 40 40" fill="none" xmlns="http://www.w3.org/2000/svg">
<g id="mi:menu">
<path id="Vector" d="M6.66663 11.6667C6.66663 11.2246 6.84222 10.8007 7.15478 10.4882C7.46734 10.1756 7.89127 10 8.33329 10H31.6666C32.1087 10 32.5326 10.1756 32.8451 10.4882C33.1577 10.8007 33.3333 11.2246 33.3333 11.6667C33.3333 12.1087 33.1577 12.5326 32.8451 12.8452C32.5326 13.1577 32.1087 13.3333 31.6666 13.3333H8.33329C7.89127 13.3333 7.46734 13.1577 7.15478 12.8452C6.84222 12.5326 6.66663 12.1087 6.66663 11.6667ZM6.66663 20C6.66663 19.558 6.84222 19.134 7.15478 18.8215C7.46734 18.5089 7.89127 18.3333 8.33329 18.3333H31.6666C32.1087 18.3333 32.5326 18.5089 32.8451 18.8215C33.1577 19.134 33.3333 19.558 33.3333 20C33.3333 20.442 33.1577 20.8659 32.8451 21.1785C32.5326 21.4911 32.1087 21.6667 31.6666 21.6667H8.33329C7.89127 21.6667 7.46734 21.4911 7.15478 21.1785C6.84222 20.8659 6.66663 20.442 6.66663 20ZM6.66663 28.3333C6.66663 27.8913 6.84222 27.4674 7.15478 27.1548C7.46734 26.8423 7.89127 26.6667 8.33329 26.6667H31.6666C32.1087 26.6667 32.5326 26.8423 32.8451 27.1548C33.1577 27.4674 33.3333 27.8913 33.3333 28.3333C33.3333 28.7754 33.1577 29.1993 32.8451 29.5118C32.5326 29.8244 32.1087 30 31.6666 30H8.33329C7.89127 30 7.46734 29.8244 7.15478 29.5118C6.84222 29.1993 6.66663 28.7754 6.66663 28.3333Z" fill="black"/>
</g>
</svg>
