<svg width="127" height="18" viewBox="0 0 127 18" fill="none" xmlns="http://www.w3.org/2000/svg">
<path id="Recurso 1 1 (Traced)" fill-rule="evenodd" clip-rule="evenodd" d="M6.59406 0.570919C5.52755 0.699593 4.22182 0.951526 3.61668 1.14528C2.00146 1.66242 0.813879 2.56462 0.281923 3.67862C0.0341593 4.19735 0 4.40395 0 5.38365C0 6.36941 0.0332947 6.56826 0.288085 7.10206C0.954733 8.49868 2.45969 9.41235 4.99213 9.95773C5.97227 10.1688 6.48823 10.1921 11.7288 10.2622C16.5425 10.3265 17.5212 10.3658 18.176 10.5209C19.5699 10.851 20.2692 11.4991 20.2682 12.4598C20.2674 13.2114 19.6561 13.8684 18.5931 14.2596C18.0836 14.4472 17.5456 14.4604 9.21546 14.4898L0.378347 14.5211V16.0087V17.4964L9.81001 17.4567C20.0617 17.4136 19.6969 17.4339 21.627 16.7976C23.1929 16.2813 24.2748 15.4502 24.8763 14.3016C25.1568 13.7662 25.1823 13.6208 25.1846 12.5499C25.1869 11.5013 25.1575 11.3198 24.8966 10.7731C24.1887 9.28973 22.7198 8.40589 19.9859 7.81837C18.9989 7.60625 18.4803 7.58257 13.1881 7.50794C7.26978 7.42438 6.78636 7.38723 5.94546 6.95099C5.7671 6.85852 5.47523 6.63206 5.29686 6.44787C5.01224 6.15379 4.97257 6.03679 4.97257 5.49067C4.97257 5.03235 5.03083 4.78944 5.19363 4.56861C5.50647 4.14427 6.46434 3.70644 7.35075 3.58254C7.79331 3.52075 11.2148 3.47595 15.5933 3.47478L23.0792 3.47266V1.98633V0.5L14.9988 0.515925C10.5546 0.524631 6.77242 0.549473 6.59406 0.570919ZM30.7542 8.99331V17.4866H33.2405H35.7268V8.99331V0.5H33.2405H30.7542V8.99331ZM51.4012 0.620605C46.7315 1.09018 43.7453 2.64318 42.3799 5.3122C41.6977 6.64565 41.5336 7.48978 41.5921 9.36489C41.6309 10.6112 41.6852 10.9921 41.929 11.7234C42.7814 14.2803 45.0171 16.058 48.4285 16.8916C50.4949 17.3964 51.0359 17.4335 56.3197 17.4335C61.556 17.4335 62.043 17.397 63.6041 16.8866C65.241 16.3513 66.5547 15.3297 67.1329 14.1424C67.3994 13.5951 67.4491 13.3484 67.4854 12.3906C67.5215 11.4407 67.4932 11.1856 67.2938 10.6652C66.6701 9.03705 65.0995 7.98123 62.6841 7.56633C61.9266 7.43617 60.8316 7.40145 57.4818 7.40113L53.2389 7.40082V8.67481V9.94881L56.5629 9.94966C60.1691 9.95051 60.9922 10.0264 61.8599 10.4382C63.1916 11.0704 63.3771 12.713 62.226 13.6806C61.3533 14.4143 60.9861 14.4613 56.1576 14.4577C52.1547 14.4546 51.825 14.44 50.8849 14.2229C47.8363 13.5189 46.5367 11.9559 46.5367 8.99331C46.5367 5.59949 48.3288 3.96538 52.474 3.57936C53.1028 3.52075 56.4022 3.47277 59.8059 3.47277L65.9946 3.47266V1.98633V0.5L59.1573 0.51412C55.3968 0.52187 51.9066 0.569751 51.4012 0.620605ZM72.913 6.27163C72.913 9.70452 72.9571 12.2717 73.0219 12.6072C73.4692 14.9242 75.3434 16.382 78.8584 17.1473L80.1016 17.4179L87.4253 17.4589L94.749 17.5V16.0129V14.5257L88.0739 14.4889C81.6315 14.4533 81.3698 14.4441 80.5672 14.2235C79.5551 13.9453 79.1889 13.7654 78.6364 13.2752C77.8894 12.6125 77.8855 12.5756 77.8855 6.16058V0.5H75.3992H72.913V6.27163ZM107.397 0.613704C100.869 1.2903 97.5596 4.1276 97.5596 9.04639C97.5596 11.4262 98.1798 13.0222 99.6661 14.4675C101.34 16.095 103.845 17.0464 107.358 17.389C108.122 17.4635 110.218 17.4895 113.087 17.4601C117.999 17.4099 118.837 17.3269 120.896 16.6881C124.119 15.6882 126.039 13.9099 126.762 11.2547C127.08 10.0865 127.079 8.00437 126.761 6.83367C125.989 3.99818 123.838 2.1029 120.36 1.1938C118.244 0.640777 117.505 0.578032 112.748 0.547138C110.31 0.531425 107.902 0.561364 107.397 0.613704ZM116.053 3.57936C120.161 3.96187 121.98 5.62391 121.988 9.00032C121.996 12.2971 120.326 13.9342 116.48 14.4025C115.299 14.5461 109.236 14.5473 108.042 14.404C104.187 13.9411 102.532 12.3317 102.532 9.04639C102.532 5.68633 104.332 3.98767 108.315 3.58774C109.578 3.46098 114.722 3.45535 116.053 3.57936Z" fill="black"/>
</svg>
